<svg width="12" height="11" viewBox="0 0 12 11" fill="none" xmlns="http://www.w3.org/2000/svg">
<path fill-rule="evenodd" clip-rule="evenodd" d="M6.66535 0.223529C6.59821 0.0862699 6.45995 -0.000392342 6.3086 1.33562e-06C6.15783 0.000394982 6.02014 0.0877758 5.95357 0.225384L4.4276 3.38229L0.960614 3.89202C0.811147 3.91399 0.686941 4.02003 0.640172 4.1656C0.593346 4.31116 0.632091 4.47103 0.740081 4.57806L3.25212 7.06804L2.65226 10.5279C2.62597 10.6795 2.68725 10.833 2.81015 10.9233C2.93293 11.0137 3.09622 11.0251 3.22993 10.9527L6.30974 9.28801L9.39069 10.9527C9.5244 11.025 9.68712 11.0137 9.81002 10.9234C9.93291 10.8332 9.99436 10.6799 9.96819 10.5284L9.37249 7.06804L11.8805 4.57781C11.9886 4.47077 12.0273 4.31103 11.9806 4.16558C11.9334 4.02013 11.8094 3.91414 11.6603 3.89206L8.21179 3.38228L6.66535 0.223529ZM6.28357 8.43045C6.3564 8.4255 6.43036 8.44095 6.49636 8.47681L9.04646 9.85467L8.55488 6.99786C8.53212 6.86729 8.57479 6.73392 8.6681 6.64113L10.7528 4.57128L7.89147 4.14831C7.76231 4.12926 7.65079 4.0473 7.59333 3.929L6.33762 1.36471L6.28357 8.43045Z" fill="#FFB80F"/>
</svg>
